<svg xmlns="http://www.w3.org/2000/svg" width="512" height="512" viewBox="0 0 512 512" version="1.1">
	<path d="M 270 35.335 C 270 36.213, 273.506 37.447, 280.250 38.943 C 325.615 49.007, 363.667 68.200, 401.623 100.160 C 413.304 109.997, 414.064 109.401, 407.566 95.500 C 403.195 86.148, 394.041 74.071, 384.788 65.447 C 377.309 58.477, 368.734 52.932, 367.439 54.228 C 367.071 54.595, 367.916 56.944, 369.315 59.448 C 372.048 64.338, 371.668 65.065, 367.885 62.183 C 363.891 59.140, 349.914 51.446, 342.482 48.198 C 327.009 41.437, 309.024 36.995, 289.144 35.026 C 274.864 33.611, 270 33.690, 270 35.335 M 220 35.703 C 210.106 36.482, 189.974 40.349, 181 43.195 C 169.224 46.929, 155.924 53.229, 145.719 59.908 C 141.440 62.709, 137.727 65, 137.469 65 C 137.212 65, 138.237 62.786, 139.747 60.080 C 141.258 57.375, 142.165 54.831, 141.762 54.429 C 140.686 53.353, 131.166 59.981, 123.418 67.201 C 119.700 70.666, 113.994 77.082, 110.737 81.460 C 102.465 92.582, 95.805 106.143, 97.960 107.475 C 98.407 107.752, 101.862 105.433, 105.636 102.324 C 128.352 83.612, 147.228 71.175, 168.500 60.905 C 192.831 49.158, 210.521 43.565, 234.298 40.101 C 241.337 39.076, 247.399 37.934, 247.769 37.564 C 249.993 35.340, 236.289 34.422, 220 35.703 M 276 61.815 C 276 63.495, 278.494 64.541, 292.074 68.556 C 325.378 78.402, 353.022 93.068, 376.798 113.505 C 388.332 123.419, 395.123 130.736, 404.956 143.842 C 412.263 153.581, 414.191 153.712, 412.224 144.334 C 409.561 131.634, 402.330 120.248, 388.833 107.500 C 366.288 86.205, 336.898 71.215, 303.701 64.078 C 291.631 61.483, 276 60.206, 276 61.815 M 206 67.437 C 200.225 68.187, 192.575 69.489, 189 70.330 C 164.769 76.029, 137.600 91.233, 120 108.944 C 110.209 118.796, 105.583 125.504, 101.345 135.997 C 98.646 142.678, 97.116 152, 98.717 152 C 99.265 152, 103.040 147.619, 107.107 142.265 C 130.133 111.947, 162.353 88.844, 194.669 79.479 C 211.111 74.714, 219.118 73.751, 244.879 73.438 C 269.285 73.142, 275.390 72.241, 267.377 70.119 C 253.765 66.513, 223.343 65.184, 206 67.437 M 240.500 83.632 C 219.105 85.979, 201.012 91.250, 182.500 100.528 C 134.175 124.747, 103.172 170.429, 97.006 226.500 C 94.557 248.775, 97.229 277.080, 101.773 276.985 C 102.173 276.976, 103.119 276.577, 103.875 276.098 C 105.024 275.371, 105.069 272.688, 104.149 259.826 C 101.803 227.016, 107.449 198.311, 121.660 170.795 C 143.146 129.194, 186.100 99.430, 235.500 91.912 C 248.607 89.917, 270.752 90.398, 282.957 92.942 C 313.575 99.325, 345.850 117.831, 366.769 141 C 394.954 172.215, 409.063 216.247, 405.127 260.709 C 404.012 273.299, 404.051 274.564, 405.593 275.691 C 408.379 277.729, 410.777 275.587, 411.689 270.247 C 412.135 267.636, 412.480 255.375, 412.455 243 C 412.416 223.648, 412.101 219.078, 410.203 210.336 C 403.060 177.426, 389.771 152.534, 367.584 130.500 C 344.055 107.134, 317.317 92.106, 288.467 86.031 C 278.644 83.963, 250.373 82.549, 240.500 83.632 M 83.764 98.573 C 69.002 115.995, 59.941 130.112, 51.395 149 C 41.755 170.307, 35.013 193.080, 31.412 216.500 C 28.784 233.586, 29.012 263.882, 31.892 280.333 C 38.695 319.193, 52.804 352.790, 74.376 381.500 C 95.416 409.501, 117.024 426.359, 146.455 437.731 C 161.216 443.435, 206.591 456.742, 207.654 455.679 C 208.725 454.608, 205.156 450.170, 199.854 445.979 C 192.780 440.387, 183.739 435.307, 168.559 428.394 C 152.339 421.007, 147.728 416.948, 137.582 401.127 C 133.412 394.626, 130 388.949, 130 388.513 C 130 388.077, 130.728 387.188, 131.617 386.538 C 133.102 385.452, 133.090 385.073, 131.473 381.928 C 128.420 375.987, 120.903 367.144, 113.065 360.275 C 104.267 352.563, 91.556 344, 88.907 344 C 87.150 344, 87.157 344.201, 89.077 348.680 C 92.132 355.807, 100.231 368.775, 109.747 381.779 C 118.576 393.845, 127 406.384, 127 407.460 C 127 410.501, 106.828 391.260, 97.845 379.651 C 77.547 353.416, 62.884 321.218, 56.109 288 C 48.678 251.565, 51.768 209.886, 65.115 166.500 C 68.413 155.781, 79.726 125.354, 87.956 105.068 C 95.413 86.688, 94.730 85.630, 83.764 98.573 M 417 90.941 C 417 91.458, 419.518 97.645, 422.596 104.691 C 438.293 140.624, 444.154 156.085, 449.626 175.994 C 465.723 234.565, 462.677 285.468, 439.990 337.022 C 432.225 354.668, 419.618 374.342, 406.259 389.664 C 399.247 397.706, 384.777 409.831, 384.213 408.138 C 383.839 407.017, 388.242 400.397, 402.702 380.338 C 416.188 361.630, 426.792 343, 423.954 343 C 419.423 343, 402.423 355.517, 392.396 366.236 C 383.159 376.110, 379.741 381.771, 380.412 386.080 C 380.892 389.166, 380.144 391.055, 374.979 399.790 C 365.645 415.579, 361.769 418.897, 340 429.735 C 321.892 438.751, 309.644 446.770, 305.638 452.234 C 304.536 453.737, 303.929 455.262, 304.289 455.623 C 305.159 456.492, 353.783 441.870, 366.500 436.915 C 386.495 429.124, 404.374 417.387, 420.451 401.500 C 450.696 371.611, 470.505 333.173, 479.122 287.650 C 482.023 272.324, 482.810 238.524, 480.664 221.452 C 476.575 188.935, 465.255 154.919, 450.006 129.327 C 438.360 109.782, 417 84.940, 417 90.941 M 241.500 101.958 C 225.343 103.553, 208.131 108.837, 191.625 117.269 C 134.468 146.469, 104.858 211.995, 119.106 277.754 C 124.861 304.318, 138.624 330.307, 154.747 345.057 C 187.351 374.884, 225.356 387.316, 270.576 382.944 C 296.112 380.475, 318.039 372.601, 339.561 358.172 C 351.924 349.883, 359.482 342.744, 366.885 332.363 C 408.115 274.543, 400.788 187.761, 350.672 140.337 C 321.967 113.174, 279.416 98.215, 241.500 101.958 M 228 117.899 C 198.028 124.536, 170.662 142.335, 152.614 166.931 C 138.119 186.686, 129.711 210.791, 129.491 233.224 C 129.428 239.672, 129.790 248.222, 130.295 252.224 C 130.800 256.226, 131.206 260.624, 131.197 261.997 L 131.181 264.495 132.940 262.322 C 134.119 260.867, 134.922 257.486, 135.372 252.088 C 136.554 237.913, 138.168 233.967, 139.599 241.750 C 139.978 243.813, 140.731 245.787, 141.272 246.138 C 141.813 246.489, 142.902 250.539, 143.692 255.138 C 144.482 259.737, 145.511 263.888, 145.977 264.363 C 147.762 266.178, 149.001 263.663, 149.015 258.191 C 149.029 253.063, 150.679 245.987, 152.222 244.445 C 152.955 243.712, 155.570 252.839, 156.458 259.227 C 156.820 261.826, 157.540 264.216, 158.060 264.537 C 159.287 265.296, 161 260.742, 161 256.718 C 161 253.088, 163.855 245, 165.136 245 C 165.611 245, 166 246.050, 166 247.333 C 166 248.617, 166.338 250.001, 166.750 250.410 C 167.162 250.818, 167.950 254.287, 168.500 258.118 C 170.003 268.586, 171.139 267.888, 174.058 254.703 C 174.764 251.515, 175.649 248.717, 176.025 248.485 C 177.284 247.707, 179.100 253.267, 179.706 259.753 C 180.080 263.759, 180.814 266.375, 181.653 266.697 C 182.394 266.981, 183 267.888, 183 268.711 C 183 270.459, 189.172 282.367, 191.956 285.988 L 193.868 288.477 195.056 285.488 C 195.709 283.845, 196.466 279.332, 196.739 275.460 C 197.149 269.659, 196.844 267.508, 195.008 263.241 C 193.783 260.393, 192.155 257.544, 191.390 256.909 C 189.305 255.178, 189.702 254.169, 192.609 253.816 C 194.520 253.585, 195.876 252.296, 197.676 249 C 199.850 245.019, 200.089 243.548, 199.746 236.250 C 199.533 231.713, 199.728 228, 200.179 228 C 200.631 228, 201.014 224.287, 201.032 219.750 C 201.054 214.086, 201.524 210.892, 202.532 209.559 C 203.339 208.491, 204 206.855, 204 205.923 C 204 204.991, 204.637 203.001, 205.415 201.500 L 206.831 198.772 208.278 201.636 C 209.074 203.211, 209.510 205.106, 209.247 205.848 C 208.984 206.589, 209.659 208.401, 210.749 209.874 C 212.532 212.285, 212.626 213.190, 211.697 218.959 C 210.728 224.978, 210.794 225.451, 212.793 226.779 C 214.795 228.108, 214.826 228.336, 213.324 230.628 C 210.693 234.643, 212.033 243.827, 216.070 249.448 C 218.343 252.613, 220.049 254, 221.670 254 C 222.951 254, 224 254.179, 224 254.398 C 224 254.618, 222.602 257.430, 220.892 260.648 C 217.946 266.197, 217.814 266.925, 218.340 274.702 C 218.954 283.765, 221.645 290.740, 227.039 297.250 C 232.004 303.243, 234.425 301.647, 233.899 292.729 C 233.620 287.992, 236.665 277.675, 238.083 278.551 C 238.587 278.863, 239.003 279.654, 239.006 280.309 C 239.010 280.964, 239.702 282.822, 240.544 284.438 C 241.499 286.269, 241.836 288.470, 241.438 290.280 C 240.203 295.903, 241.864 301.784, 245.815 305.778 C 253.575 313.622, 272.413 330, 273.677 330 C 274.547 330, 275 328.673, 275 326.122 C 275 323.896, 275.639 321.715, 276.500 321 C 277.325 320.315, 278 318.937, 278 317.937 C 278 314.881, 279.940 314.712, 281.064 317.669 C 281.648 319.204, 282.598 320.751, 283.175 321.108 C 283.752 321.465, 284.337 324.278, 284.474 327.359 C 284.774 334.126, 286.135 336, 290.747 336 C 292.673 336, 297.737 337.575, 302 339.500 C 311.129 343.622, 312.017 343.710, 314.664 340.750 C 319.085 335.808, 326.376 319.739, 325.789 316.231 C 325.597 315.079, 326.261 314.392, 327.775 314.177 C 331.834 313.601, 333.181 310.013, 332.982 300.302 C 332.855 294.083, 333.310 290.093, 334.534 286.705 C 336.266 281.911, 336.268 281.910, 338.184 283.968 C 339.239 285.100, 339.815 286.490, 339.465 287.057 C 339.115 287.624, 339.399 288.776, 340.098 289.618 C 340.971 290.670, 341.289 294.100, 341.116 300.594 L 340.864 310.039 343.867 311.302 C 345.518 311.996, 347.839 313.797, 349.023 315.302 C 350.208 316.808, 352.462 318.705, 354.033 319.517 C 356.710 320.901, 356.990 320.853, 358.472 318.747 C 359.342 317.511, 360.991 313.350, 362.137 309.500 C 364.641 301.091, 366.128 298.070, 369.883 293.763 C 373.276 289.872, 377.466 276.395, 379.117 264.064 C 381.146 248.906, 378.947 213, 375.990 213 C 375.523 213, 374.638 215.588, 374.022 218.750 C 369.349 242.740, 364.377 259.347, 356.508 277.253 C 352.077 287.336, 348.323 293.656, 347.345 292.678 C 347.110 292.444, 349.212 285.141, 352.016 276.451 C 361.504 247.044, 368.608 213.642, 366.034 210.541 C 365.331 209.694, 364.180 209, 363.476 209 C 361.834 209, 351.309 220.237, 333.620 240.876 C 325.900 249.883, 319.413 256.740, 319.204 256.113 C 318.681 254.543, 322.128 248.817, 338.163 224.620 C 345.773 213.136, 352 203.154, 352 202.438 C 352 201.722, 350.674 200.192, 349.054 199.038 L 346.107 196.940 316.060 211.970 C 299.534 220.237, 285.560 227, 285.006 227 C 281.244 227, 288.929 221.163, 321.608 199.200 C 329.918 193.616, 337.289 188.356, 337.990 187.512 C 339.030 186.259, 338.950 185.157, 337.549 181.489 C 336.606 179.020, 335.669 177, 335.468 177 C 335.266 177, 323.411 178.800, 309.123 181 C 282.724 185.065, 276.149 185.731, 279.017 184.050 C 281.979 182.314, 297.874 178.223, 331.750 170.476 C 333.769 170.015, 334 169.360, 334 164.103 C 334 160.615, 333.494 157.842, 332.750 157.248 C 332.030 156.674, 314.979 155.744, 292.511 155.054 C 271.068 154.395, 253.330 153.663, 253.095 153.428 C 252.859 153.193, 252.908 152.759, 253.203 152.464 C 254.387 151.280, 284.890 148.949, 307.241 148.336 C 327.550 147.778, 330.813 147.479, 329.808 146.269 C 327.686 143.712, 320.653 140.742, 311.145 138.387 C 306 137.113, 301.162 135.550, 300.395 134.913 C 298.443 133.293, 298.655 131.768, 300.750 132.360 C 301.712 132.633, 304.920 133.163, 307.878 133.539 C 312.034 134.068, 313.082 133.941, 312.489 132.982 C 310.957 130.503, 293.141 123, 281.464 119.916 C 270.860 117.115, 267.624 116.714, 253 116.387 C 239.528 116.085, 234.940 116.362, 228 117.899 M 339.628 145.109 C 338.674 149.882, 338.744 150, 342.557 150 L 346.113 150 344.307 146.923 C 341.403 141.978, 340.337 141.564, 339.628 145.109 M 421.385 147.250 C 421.748 150.137, 422.470 155.650, 422.990 159.500 C 423.509 163.350, 423.949 169.335, 423.967 172.800 C 423.986 176.485, 425.227 183.751, 426.954 190.300 C 430.455 203.572, 432.851 216.174, 433.955 227.130 C 434.397 231.508, 435.034 235.368, 435.373 235.706 C 435.711 236.044, 436.813 235.574, 437.823 234.661 C 439.844 232.831, 444.528 232.428, 445.500 234 C 448.390 238.676, 448.365 228.001, 445.435 206.277 C 443.084 188.844, 436.533 167.023, 429.314 152.576 C 423.373 140.687, 420.300 138.623, 421.385 147.250 M 88.287 145.826 C 85.150 150.069, 78.602 163.529, 75.554 172 C 69.059 190.051, 64.588 214.768, 65.181 229.345 L 65.500 237.190 68.290 234.991 C 70.469 233.273, 71.836 232.934, 74.540 233.441 C 76.443 233.799, 78.003 233.733, 78.006 233.295 C 78.031 229.929, 81.494 210.774, 84.388 198 C 86.544 188.481, 88.305 177.291, 88.950 169 C 89.528 161.575, 90.440 153.700, 90.977 151.500 C 92.178 146.575, 92.267 143, 91.188 143 C 90.741 143, 89.436 144.272, 88.287 145.826 M 70.137 243.160 C 67.682 249.570, 65.887 261.654, 66.522 267.500 C 68.004 281.148, 74.844 303.552, 77.280 302.740 C 77.882 302.539, 79.024 300.428, 79.817 298.048 C 81.098 294.205, 81.074 292.951, 79.603 286.855 C 78.692 283.080, 77.499 274.930, 76.953 268.745 C 76.407 262.560, 75.709 254.694, 75.402 251.264 C 75.054 247.378, 74.149 244.176, 73 242.764 L 71.155 240.500 70.137 243.160 M 439.016 243.481 C 438.287 244.359, 437.256 251.842, 436.481 261.873 C 435.763 271.174, 434.432 282.429, 433.524 286.883 C 431.580 296.414, 431.787 301.349, 434.150 301.796 C 436.483 302.237, 440.423 293.732, 443.495 281.622 C 446.908 268.164, 446.781 260.983, 442.869 246.250 C 441.655 241.680, 440.938 241.165, 439.016 243.481 M 143.500 276.927 C 142.310 277.394, 147.078 277.904, 155.278 278.185 C 163.873 278.479, 169.498 279.098, 170.228 279.828 C 171.124 280.724, 170.940 281.028, 169.450 281.118 C 166.808 281.279, 167.517 281.308, 158 280.651 C 153.325 280.328, 150.175 280.305, 151 280.600 C 156.490 282.562, 160 284.472, 160 285.497 C 160 286.935, 157.561 289.159, 153.500 291.421 L 150.500 293.093 154 292.599 C 155.925 292.328, 160.033 291.812, 163.129 291.453 C 172.963 290.312, 171.320 294.031, 160.226 298.026 C 156.775 299.269, 154.075 300.381, 154.226 300.497 C 154.377 300.613, 158.524 300.307, 163.443 299.818 C 175.736 298.594, 177.140 299.290, 167 301.580 L 158.500 303.500 174.333 304 C 188.521 304.448, 190.313 304.702, 191.583 306.441 C 192.362 307.509, 193 308.960, 193 309.665 C 193 311.365, 188.757 313.436, 182.038 315.017 L 176.575 316.301 180.734 317.529 C 185.748 319.010, 197.629 325.385, 200.750 328.269 C 202.062 329.482, 203 331.527, 203 333.174 C 203 335.422, 202.540 336.011, 200.750 336.054 C 199.058 336.095, 199.497 336.530, 202.519 337.804 C 204.729 338.737, 209.679 341.131, 213.519 343.125 C 219.675 346.322, 238.785 354, 240.585 354 C 240.954 354, 237.711 351.708, 233.378 348.907 C 229.045 346.106, 222.350 340.748, 218.500 337.001 C 210.226 328.947, 200.560 322.853, 190.901 319.600 C 186.332 318.062, 184.476 317.031, 185.538 316.624 C 188.531 315.475, 207.425 316.019, 214.164 317.447 C 222.468 319.207, 225.264 320.642, 231.250 326.216 C 234.728 329.455, 236 331.388, 236 333.433 C 236 336.194, 235.943 336.219, 231.250 335.557 C 228.637 335.188, 225.600 334.631, 224.500 334.319 C 219.567 332.920, 224.544 335.200, 236.500 339.816 C 243.650 342.577, 254 346.860, 259.500 349.335 C 265 351.810, 271.075 354.123, 273 354.475 L 276.500 355.115 274 353 L 271.500 350.885 274.500 351.390 C 276.150 351.668, 280.425 352.188, 284 352.546 C 287.575 352.904, 293.988 353.995, 298.250 354.971 C 302.512 355.947, 306 356.552, 306 356.316 C 306 356.081, 304.087 355.047, 301.750 354.021 C 296.953 351.913, 284.731 350, 276.067 350 C 269.765 350, 266.753 348.466, 258.086 340.842 C 255.658 338.706, 251.158 335.541, 248.086 333.807 C 245.014 332.073, 238.883 328.049, 234.462 324.865 C 225.057 318.090, 221.777 316.585, 212.993 315.016 C 207.360 314.010, 206.036 313.333, 203 309.901 C 201.075 307.725, 194.550 302.695, 188.500 298.723 C 177.339 291.394, 175.594 289.414, 173.324 281.500 C 172.615 279.029, 171.673 278.294, 167.982 277.330 C 162.905 276.006, 146.531 275.736, 143.500 276.927 M 99.975 284.565 C 99.439 285.976, 98.994 289.688, 98.986 292.815 C 98.969 300.007, 98.170 303, 96.267 303 C 94.310 303, 94.598 304.128, 101.248 322.573 C 107.994 341.285, 110.080 345.112, 120.010 357 C 124.374 362.225, 129.376 369.200, 131.126 372.500 C 136.104 381.886, 137.646 383.673, 146.346 390.141 C 152.252 394.532, 154.585 395.785, 154.807 394.686 C 155.179 392.847, 145.882 369.662, 141.700 362 C 140.049 358.975, 136.012 352.290, 132.729 347.145 C 124.527 334.287, 115.722 315.523, 115.534 310.500 C 115.450 308.239, 113.825 303.239, 111.799 299 C 109.827 294.875, 107.453 289.363, 106.524 286.750 C 104.572 281.262, 101.607 280.273, 99.975 284.565 M 404.113 283.364 C 403.490 284.114, 402.038 287.599, 400.887 291.107 C 399.735 294.616, 397.939 299.159, 396.896 301.203 C 395.853 303.248, 395 306.970, 395 309.476 C 395 313.055, 393.688 316.652, 388.876 326.265 C 385.508 332.994, 380.873 341.425, 378.576 345 C 371.296 356.329, 368.386 362.110, 362.115 377.700 C 356.109 392.629, 355.142 396, 356.864 396 C 358.332 396, 372.880 384.122, 374.324 381.745 C 375.074 380.510, 377.582 376.111, 379.897 371.968 C 382.212 367.826, 387.679 360.278, 392.045 355.195 C 401.774 343.869, 402.964 341.585, 409.612 321.500 C 414.684 306.175, 414.830 305.437, 413.077 304 C 411.755 302.916, 411.077 300.536, 410.633 295.426 C 409.631 283.891, 407.282 279.545, 404.113 283.364 M 150.147 353.888 C 148.135 355.163, 149.837 357.683, 157.647 364.989 C 169.902 376.453, 187.360 386.519, 205.340 392.489 C 222 398.021, 228.756 399.110, 250 399.691 C 266.775 400.150, 271.189 399.936, 281.583 398.162 C 304.023 394.331, 323.891 386.365, 341.989 373.939 C 352.608 366.649, 361.244 358.512, 360.805 356.210 C 360.185 352.954, 356.523 353.830, 349.947 358.808 C 325.235 377.516, 305.211 386.617, 278.871 391.113 C 268.554 392.874, 263.843 393.142, 250.500 392.722 C 215.958 391.634, 192.313 383.012, 163.375 360.951 C 157.638 356.578, 152.620 353.007, 152.223 353.015 C 151.825 353.024, 150.891 353.417, 150.147 353.888 M 319.778 395.777 C 318.480 399.215, 309.869 404, 304.978 404 C 300.918 404, 298 407.144, 298 411.519 C 298 414.785, 298.182 414.992, 300.532 414.403 C 305.309 413.204, 306.390 413.474, 307.343 416.110 C 309.090 420.939, 307.553 423.224, 299.767 427.367 C 287.275 434.014, 276.875 441.508, 266.212 451.548 L 255.924 461.235 245.712 451.314 C 234.493 440.415, 228.427 435.985, 213.704 427.944 L 203.907 422.593 204.204 418.046 C 204.486 413.708, 204.637 413.503, 207.500 413.576 C 209.150 413.618, 211.145 413.843, 211.932 414.076 C 213.754 414.615, 215.668 405.268, 214.065 403.665 C 213.497 403.097, 209.574 402.152, 205.347 401.566 C 198.329 400.593, 197.517 400.240, 196 397.500 C 193.842 393.607, 191.808 393.689, 190.653 397.716 C 189.785 400.741, 189.390 400.970, 183.972 401.583 C 179.300 402.111, 178.019 402.663, 177.178 404.508 C 176.159 406.745, 176.039 406.760, 169.821 405.426 C 161.217 403.581, 156.360 403.619, 155.624 405.538 C 155.299 406.384, 155.589 407.234, 156.267 407.428 C 167.218 410.553, 171.481 414.340, 174.372 423.510 C 175.840 428.169, 176.468 429, 178.516 429 C 185.113 429, 203.510 438.349, 218.206 449.170 C 229.104 457.194, 243.182 471.454, 250.439 481.819 C 253.642 486.394, 256.587 489.769, 256.983 489.319 C 257.379 488.868, 260.324 484.900, 263.528 480.500 C 271.971 468.904, 277.585 462.601, 285.500 455.834 C 298.927 444.354, 318.794 432.643, 330.990 429.018 C 336.216 427.465, 336.565 427.150, 338.268 422.444 C 340.583 416.046, 345.387 411.611, 352.393 409.402 C 358.245 407.558, 359.644 405.451, 355.679 404.456 C 353.738 403.968, 344.058 405.655, 337.866 407.559 C 336.760 407.899, 336.042 407.303, 335.643 405.715 C 335.209 403.985, 333.828 402.992, 330.385 401.934 C 326.459 400.728, 325.540 399.955, 324.608 397.075 C 323.152 392.576, 321.186 392.047, 319.778 395.777 M 96.196 433.142 C 96.805 435.045, 121.300 449.916, 134.500 456.398 C 151.795 464.890, 160.360 467.309, 173.500 467.413 C 188.823 467.534, 212 465.056, 212 463.296 C 212 461.317, 208.797 460.348, 184.028 454.840 C 171.669 452.091, 154.119 447.569, 145.028 444.791 C 125.666 438.873, 106.100 433.531, 100.044 432.507 C 96.660 431.936, 95.853 432.069, 96.196 433.142 M 398.500 435.413 C 391.900 437.212, 379.975 440.757, 372 443.290 C 357.864 447.781, 344.035 451.375, 315.500 457.972 C 302.048 461.082, 296.746 463.293, 300.072 464.403 C 303.414 465.518, 327.368 467.500, 337.500 467.500 C 347.227 467.499, 349.657 467.120, 358.500 464.222 C 364 462.420, 372.775 458.816, 378 456.214 C 388.925 450.774, 410.083 438.221, 414.500 434.559 L 417.500 432.072 414 432.107 C 412.075 432.127, 405.100 433.614, 398.500 435.413" stroke="none" fill="black" fill-rule="evenodd"/>
</svg>
